<?xml version="1.0" standalone="no"?><!DOCTYPE svg PUBLIC "-//W3C//DTD SVG 1.1//EN" "http://www.w3.org/Graphics/SVG/1.1/DTD/svg11.dtd"><svg t="1781244060334" class="icon" viewBox="0 0 1024 1024" version="1.1" xmlns="http://www.w3.org/2000/svg" p-id="13540" xmlns:xlink="http://www.w3.org/1999/xlink" width="200" height="200"><path d="M212.992 526.336 212.992 526.336 212.992 526.336 215.04 526.336 212.992 526.336Z" p-id="13541"></path><path d="M819.2 202.752 819.2 202.752c-79.872-79.872-188.416-129.024-309.248-129.024C391.168 75.776 282.624 122.88 204.8 200.704L202.752 202.752c-79.872 79.872-126.976 188.416-126.976 307.2 0 120.832 49.152 229.376 126.976 307.2 77.824 79.872 186.368 126.976 307.2 126.976 120.832 0 229.376-49.152 307.2-126.976 79.872-77.824 126.976-188.416 126.976-307.2C946.176 391.168 897.024 282.624 819.2 202.752zM770.048 770.048c-65.536 65.536-157.696 108.544-260.096 108.544-202.752 0-368.64-165.888-368.64-368.64 0-102.4 40.96-194.56 108.544-260.096l2.048-2.048c65.536-65.536 157.696-106.496 258.048-106.496 102.4 0 194.56 40.96 260.096 108.544 65.536 65.536 108.544 157.696 108.544 260.096S837.632 704.512 770.048 770.048z" p-id="13542"></path><path d="M540.672 301.056 540.672 301.056c-8.192-8.192-20.48-8.192-28.672 0-4.096 4.096-6.144 8.192-6.144 14.336l0 96.256L296.96 411.648c-10.24 0-20.48 10.24-20.48 20.48l0 157.696c0 10.24 8.192 20.48 20.48 20.48l210.944 0 0 96.256c0 12.288 10.24 20.48 20.48 20.48 6.144 0 10.24-2.048 14.336-6.144l0 0 194.56-194.56c8.192-8.192 8.192-20.48 0-28.672L540.672 301.056 540.672 301.056z" p-id="13543"></path></svg>