<?xml version="1.0" standalone="no"?><!DOCTYPE svg PUBLIC "-//W3C//DTD SVG 1.1//EN" "http://www.w3.org/Graphics/SVG/1.1/DTD/svg11.dtd"><svg t="1781200000015" class="icon" viewBox="0 0 1024 1024" version="1.1" xmlns="http://www.w3.org/2000/svg" p-id="2680" xmlns:xlink="http://www.w3.org/1999/xlink" width="200" height="200"><path d="M486.461748 0.654217A511.651728 511.651728 0 0 1 1023.347209 486.490789 511.651728 511.651728 0 0 1 536.929214 1023.37625 511.651728 511.651728 0 0 1 0.625175 536.958255 511.651728 511.651728 0 0 1 486.461748 0.654217z" fill="#F9C04E" p-id="2681"></path><path d="M623.561154 227.176391H399.829807a90.701897 90.701897 0 0 0-78.60831 45.467233L209.355823 466.373573a90.585613 90.585613 0 0 0 0 90.818182l111.865674 193.72995a90.701897 90.701897 0 0 0 78.60831 45.467233h223.731347a90.934466 90.934466 0 0 0 78.724595-45.467233L814.035138 557.191755a90.585613 90.585613 0 0 0 0-90.818182l-111.749389-193.729949a90.934466 90.934466 0 0 0-78.724595-45.467233z" fill="#FFFFFF" opacity=".72" p-id="2682"></path><path d="M360.525652 630.45098a44.536957 44.536957 0 0 0 42.79269 29.768828 45.583518 45.583518 0 0 0 32.327086-13.023863l82.678268-82.561983 22.210337 22.094052a32.559655 32.559655 0 0 0 8.488767 31.745664L581.466171 650.568196A32.327086 32.327086 0 1 0 626.700835 604.752109l-32.094517-32.094518a32.443371 32.443371 0 0 0-31.745665-8.488767l-22.210336-22.094052 14.302992-14.302991a93.027587 93.027587 0 0 0 87.445931-23.256897 86.864509 86.864509 0 0 0 26.396578-56.979397v-1.162845a12.907578 12.907578 0 0 0-13.023862-12.675008 13.372716 13.372716 0 0 0-9.186474 3.604819l-3.837388 3.837387L629.607947 453.58228a46.513793 46.513793 0 0 1-32.559655 12.675009 46.513793 46.513793 0 0 1-45.467233-45.467233 46.513793 46.513793 0 0 1 12.675008-32.559656l12.907578-13.023862L581.466171 372.183142a13.837854 13.837854 0 0 0 3.721103-9.186475 12.907578 12.907578 0 0 0-12.791293-13.023862h-1.162845a86.515656 86.515656 0 0 0-56.979397 26.396578 92.32988 92.32988 0 0 0-24.419741 83.25969 7.209638 7.209638 0 0 1-1.976836 6.860785l-5.930509 6.046793a7.558491 7.558491 0 0 1-10.814457 0L418.667894 420.324918a9.186474 9.186474 0 0 1-2.674543-6.511931V407.068487a9.07019 9.07019 0 0 0-5.000233-8.139914l-28.024561-13.954138a8.837621 8.837621 0 0 0-10.465603 1.627983l-10.11675 10.11675A9.186474 9.186474 0 0 0 360.525652 407.068487l13.954138 27.908276a9.186474 9.186474 0 0 0 8.139914 5.000233h6.977069a9.07019 9.07019 0 0 1 6.395646 2.674543l51.86288 51.746595a7.674776 7.674776 0 0 1 0 10.698172l-77.329181 77.329182a46.513793 46.513793 0 0 0-10.000466 48.025492z" fill="#F9C04E" p-id="2683"></path></svg>